<svg width="87" height="88" viewBox="0 0 87 88" fill="none" xmlns="http://www.w3.org/2000/svg">
    <path d="M20.997 41.8607C20.4233 39.3842 20.5012 36.983 21.182 34.5951C21.3065 34.1582 21.5164 33.818 21.904 33.551C24.0544 32.0696 26.4213 31.2534 29.0473 31.2216C29.7354 31.2133 30.4241 31.2492 31.1975 31.2668C31.0252 31.6132 30.7405 31.6762 30.5266 31.809C28.6244 32.9896 27.3974 34.6729 26.8996 36.8237C26.2433 39.6594 26.9902 42.1865 29.0263 44.241C33.4453 48.6998 37.9306 53.0939 42.3896 57.5137C42.4543 57.5778 42.5295 57.6315 42.6334 57.718C42.8048 57.56 42.9748 57.413 43.134 57.2552C47.429 52.9979 51.7242 48.7407 56.0164 44.4806C57.8922 42.6189 58.8171 40.3855 58.5211 37.7476C58.0502 33.5512 54.4701 30.6117 50.552 30.6561C49.0252 30.6734 47.6017 31.0045 46.3346 31.8232C45.6442 32.2694 45.0444 32.8627 44.4393 33.4272C43.8332 33.9927 43.2715 34.605 42.6444 35.2435C42.4107 35.0291 42.2274 34.8653 42.0488 34.6964C41.0099 33.7144 40.0377 32.6499 38.9205 31.7653C36.5471 29.8861 33.8069 28.8606 30.7702 28.5926C27.2262 28.2798 23.9846 29.1286 20.9845 30.9807C20.909 31.0273 20.8234 31.0581 20.7402 31.0974C20.5782 30.624 20.5321 16.6421 20.691 15.7258C24.2843 15.7258 27.8863 15.7258 31.5328 15.7258C31.6634 16.4818 31.578 17.2354 31.5934 17.9834C31.609 18.7416 31.5968 19.5004 31.5968 20.2589C31.5968 21.0149 31.5968 21.771 31.5968 22.5994C35.6774 23.0391 39.3368 24.4598 42.6238 26.9271C43.0268 26.7114 43.4247 26.4905 43.8296 26.283C48.1084 24.0903 52.4855 23.9634 56.776 26.0643C61.4123 28.3345 64.0221 32.1469 64.5584 37.279C64.957 41.0939 63.8755 44.492 61.4846 47.4885C61.1551 47.9014 60.7933 48.2924 60.4179 48.6652C54.718 54.3248 49.0134 59.9799 43.3092 65.6353C43.0982 65.8445 42.88 66.0466 42.6344 66.2814C42.4181 66.0782 42.231 65.9107 42.0529 65.7341C36.2993 60.0302 30.5424 54.3296 24.796 48.6185C22.9055 46.7397 21.6401 44.5018 20.997 41.8607Z" fill="#DF001B"/>
    <path d="M31.5972 69.4483C31.5972 70.6586 31.5972 71.7999 31.5972 72.9756C27.908 72.9756 24.3056 72.9756 20.6553 72.9756C20.6553 63.7004 20.6553 54.4567 20.6553 45.0999C20.7898 45.2884 20.8885 45.3957 20.9521 45.5206C21.7207 47.0292 22.7194 48.367 23.9286 49.5587C26.3278 51.9232 28.7065 54.3081 31.1149 56.6632C31.4784 57.0187 31.6095 57.3734 31.6071 57.8689C31.5891 61.7056 31.5972 65.5425 31.5972 69.4483Z" fill="#E0006F"/>
    <path d="M47.8271 62.9478C49.9392 60.8533 52.0163 58.7934 54.1367 56.6907C54.4371 56.9874 54.702 57.2371 54.9533 57.4996C56.1478 58.747 57.3332 60.0032 58.5319 61.2466C60.7384 63.5352 62.9552 65.8139 65.1613 68.1028C66.3758 69.3629 67.5672 70.6448 68.7913 71.8955C69.0992 72.2101 69.2429 72.5156 69.0645 73.012C68.8668 73.012 68.641 73.012 68.4152 73.012C64.3615 73.012 60.3078 73.0034 56.2543 73.0238C55.7863 73.0261 55.4776 72.8675 55.178 72.544C54.1924 71.4801 53.1908 70.4306 52.1902 69.3804C50.5064 67.6131 48.8183 65.8498 47.1342 64.0828C47.0741 64.0198 47.0377 63.9347 46.9612 63.814C47.2431 63.5319 47.5176 63.2571 47.8271 62.9478Z" fill="#E0006F"/>
    <path d="M46.5732 23.8167C46.4182 23.8564 46.3123 23.8879 46.2063 23.9193C46.1826 23.8901 46.1589 23.8609 46.1351 23.8317C46.4712 23.4433 46.8001 23.0485 47.1445 22.6674C49.167 20.43 51.1987 18.2007 53.2112 15.9545C53.4719 15.6636 53.7665 15.6771 54.0889 15.6771C58.1919 15.6777 62.2949 15.6771 66.398 15.6789C66.6002 15.679 66.8025 15.6989 66.9877 15.7087C67.1729 16.117 66.8648 16.3081 66.6812 16.5118C66.0183 17.2475 65.3268 17.9578 64.6504 18.6816C62.9517 20.499 61.2565 22.3196 59.5572 24.1364C59.1654 24.5553 58.7627 24.9641 58.3389 25.4049C54.6407 23.3367 50.7353 22.8005 46.5732 23.8167Z" fill="#E0006F"/>
</svg>
